<?xml version="1.0" encoding="UTF-8"?>
<svg id="Calque_1" data-name="Calque 1" xmlns="http://www.w3.org/2000/svg" viewBox="0 0 708.66 708.66">
  <defs>
    <style>
      .cls-1 {
        fill: #1077a0;
      }

      .cls-1, .cls-2, .cls-3 {
        stroke-width: 0px;
      }

      .cls-3 {
        fill: #fff;
      }
    </style>
  </defs>
  <rect class="cls-1" x="0" y="0" width="708.66" height="708.66"/>
  <g>
    <path class="cls-3" d="M109.95,336.34h-26.25v-21.25h76.75v21.25h-26.25v66.25h-24.25v-66.25Z"/>
    <path class="cls-3" d="M171.57,315.09h24.38v87.5h-24.38v-87.5Z"/>
    <path class="cls-3" d="M211.95,315.09h24.25v66.25h42.38v21.25h-66.62v-87.5Z"/>
    <path class="cls-3" d="M288.94,315.09h44.88c11,0,18.75,2.75,23.88,7.88,3.5,3.5,5.62,8.12,5.62,14.12v.25c0,10.12-5.75,16.12-13.5,19.5,10.62,3.5,17.38,9.5,17.38,21.38v.25c0,15-12.25,24.12-33.12,24.12h-45.12v-87.5ZM327.82,349.96c7.38,0,11.5-2.5,11.5-7.62v-.25c0-4.75-3.75-7.5-11-7.5h-15.75v15.38h15.25ZM331.32,383.09c7.38,0,11.62-2.88,11.62-8v-.25c0-4.75-3.75-7.88-11.88-7.88h-18.5v16.12h18.75Z"/>
    <path class="cls-3" d="M378.82,315.09h24.38v87.5h-24.38v-87.5Z"/>
    <path class="cls-3" d="M419.19,315.09h24.25v66.25h42.38v21.25h-66.62v-87.5Z"/>
    <path class="cls-3" d="M488.19,359.09v-.25c0-25.12,20.25-45.5,47.25-45.5s47,20.12,47,45.25v.25c0,25.12-20.25,45.5-47.25,45.5s-47-20.12-47-45.25ZM557.69,359.09v-.25c0-12.62-9.12-23.62-22.5-23.62s-22.12,10.75-22.12,23.38v.25c0,12.62,9.12,23.62,22.38,23.62s22.25-10.75,22.25-23.38Z"/>
  </g>
  <g>
    <path class="cls-2" d="M101.1,481.64c-4.97,0-9.11-1.74-12.42-5.23-3.32-3.48-4.98-7.77-4.98-12.88s1.67-9.27,5-12.8c3.33-3.53,7.5-5.3,12.5-5.3,2.87,0,5.31.48,7.33,1.45,2.02.97,4.06,2.4,6.12,4.3l-1.7,1.75c-3.53-3.43-7.47-5.15-11.8-5.15s-7.71,1.51-10.52,4.52c-2.82,3.02-4.23,6.76-4.23,11.23s1.42,8.17,4.27,11.2,6.36,4.55,10.52,4.55c2.43,0,4.58-.45,6.45-1.35,1.87-.9,3.73-2.27,5.6-4.1l1.75,1.7c-2.03,2-4.13,3.52-6.3,4.55-2.17,1.03-4.7,1.55-7.6,1.55Z"/>
    <path class="cls-2" d="M149.85,476.29c-3.3,3.57-7.53,5.35-12.7,5.35s-9.38-1.77-12.65-5.33c-3.27-3.55-4.9-7.81-4.9-12.77s1.65-9.18,4.95-12.75c3.3-3.57,7.53-5.35,12.7-5.35s9.38,1.77,12.65,5.33c3.27,3.55,4.9,7.81,4.9,12.77s-1.65,9.18-4.95,12.75ZM126.57,474.69c2.85,3.07,6.41,4.6,10.67,4.6s7.81-1.52,10.62-4.55c2.82-3.03,4.23-6.77,4.23-11.2s-1.42-8.08-4.27-11.15c-2.85-3.07-6.41-4.6-10.67-4.6s-7.81,1.52-10.62,4.55c-2.82,3.03-4.23,6.77-4.23,11.2s1.42,8.08,4.27,11.15Z"/>
    <path class="cls-2" d="M163.65,481.04v-35h2.45l24.15,30.45v-30.45h2.5v35h-1.95l-24.65-31.1v31.1h-2.5Z"/>
    <path class="cls-2" d="M215,481.54c-5.23,0-9.93-1.87-14.1-5.6l1.7-1.95c1.97,1.83,3.92,3.16,5.85,3.97,1.93.82,4.17,1.23,6.7,1.23s4.72-.66,6.38-1.98c1.65-1.32,2.47-3.01,2.47-5.07,0-1.93-.69-3.47-2.08-4.6-1.38-1.13-3.99-2.08-7.83-2.85-4.2-.87-7.22-2.07-9.05-3.6-1.83-1.53-2.75-3.65-2.75-6.35s1.07-4.78,3.2-6.55c2.13-1.77,4.82-2.65,8.05-2.65,2.47,0,4.62.34,6.48,1.02,1.85.68,3.69,1.76,5.52,3.23l-1.65,2.05c-3.03-2.63-6.52-3.95-10.45-3.95-2.53,0-4.59.64-6.17,1.92-1.58,1.28-2.38,2.88-2.38,4.77s.71,3.53,2.12,4.7c1.42,1.17,4.11,2.15,8.07,2.95,4.03.83,6.96,2.02,8.78,3.55,1.82,1.53,2.72,3.6,2.72,6.2,0,2.8-1.08,5.09-3.25,6.88s-4.95,2.67-8.35,2.67Z"/>
    <path class="cls-2" d="M235.15,481.04v-35h24.9v2.4h-22.3v13.75h20.05v2.4h-20.05v14.05h22.55v2.4h-25.15Z"/>
    <path class="cls-2" d="M269,481.04v-35h2.6v35h-2.6Z"/>
    <path class="cls-2" d="M282.35,481.04v-35h2.6v32.6h20.55v2.4h-23.15Z"/>
  </g>
</svg>