<?xml version="1.0" encoding="UTF-8"?>
<svg xmlns="http://www.w3.org/2000/svg" viewBox="0 0 170.08 170.08">
  <defs>
    <style>
      .cls-1 {
        fill: #dadada;
      }

      .cls-1, .cls-2, .cls-3, .cls-4, .cls-5, .cls-6, .cls-7 {
        stroke-width: 0px;
      }

      .cls-1, .cls-6 {
        mix-blend-mode: multiply;
      }

      .cls-2 {
        fill: #85450f;
      }

      .cls-8 {
        isolation: isolate;
      }

      .cls-3 {
        fill: #f59b24;
      }

      .cls-4 {
        fill: #1478a1;
      }

      .cls-5 {
        fill: #00b1c3;
      }

      .cls-6 {
        fill: #e2e1e1;
      }

      .cls-7 {
        fill: #f9bc90;
      }
    </style>
  </defs>
  <g class="cls-8">
    <g id="Capa_1" data-name="Capa 1">
      <rect class="cls-4" x="-115.53" y="-127.56" width="401.14" height="425.2"/>
      <g>
        <rect class="cls-2" x="45.92" y="70.96" width="77.84" height="65.93"/>
        <rect class="cls-7" x="69.14" y="101.22" width="31.75" height="23.83"/>
        <path class="cls-1" d="M100.88,111.95v-10.72h-31.75v13.69c9.79,7.06,21.45,3.87,31.75-2.96Z"/>
        <path class="cls-7" d="M123.68,62.22c-2.67,29.33-23.33,52.67-39.67,52.67-14,0-37.67-25.25-37.67-54.33S60.26,9.56,84.01,9.56s39.67,23.58,39.67,52.67Z"/>
        <g>
          <path class="cls-7" d="M121.34,58.56c.04-.87,2.48-2.59,3.14-2.92,5.13-2.54,3.81,8.04,3.51,10.36-.62,4.78-2.58,10.28-7.56,11.97,0,0,.92-19.41.92-19.41Z"/>
          <path class="cls-6" d="M127.06,63.7c.04-2.2-.18-6.15-1.88-6.45-1.16-.21-2.51.54-2.62,2.77,0,.03.02.03.03,0,.51-1.77,1.24-2.59,2.2-2.47,1.26-.03,1.71,2.15,1.89,3.79.19,1.78-.08,3.64-.46,5.41-.32,1.48-.81,2.94-1.39,4.22-.77,1.7-1.69,1.77-2.79,2.06-.27.07-.43.75-.19.97,3.13,2.93,5.16-6.78,5.22-10.28Z"/>
          <path class="cls-6" d="M123.26,62.97c.03-.47.47-1.02,1-.92.58.12.49.81.5,1.31.02.85-.24,3.16-.85,3.75-1.08,1.05-1.19-.86-1.15-1.57.06-1.04.5-1.82.5-2.92"/>
        </g>
        <g>
          <path class="cls-7" d="M49.4,58.56c-.04-.87-2.48-2.59-3.14-2.92-5.13-2.54-3.81,8.04-3.51,10.36.62,4.78,2.58,10.28,7.56,11.97,0,0-.92-19.41-.92-19.41Z"/>
          <path class="cls-6" d="M43.68,63.7c-.04-2.2.18-6.15,1.88-6.45,1.16-.21,2.51.54,2.62,2.77,0,.03-.02.03-.03,0-.51-1.77-1.24-2.59-2.2-2.47-1.26-.03-1.71,2.15-1.89,3.79-.19,1.78.08,3.64.46,5.41.32,1.48.81,2.94,1.39,4.22.77,1.7,1.69,1.77,2.79,2.06.27.07.43.75.19.97-3.13,2.93-5.16-6.78-5.22-10.28Z"/>
          <path class="cls-6" d="M47.48,62.97c-.03-.47-.47-1.02-1-.92-.58.12-.49.81-.5,1.31-.02.85.24,3.16.85,3.75,1.08,1.05,1.19-.86,1.15-1.57-.06-1.04-.5-1.82-.5-2.92"/>
        </g>
        <path class="cls-7" d="M160.24,168.23c.67-32.39-30.5-36.23-30.5-36.23-13.11-.82-29.58-7.46-29.58-7.46l-15.73.02-14.62.02s-16.45,6.69-29.56,7.54c0,0-31,3.71-30.4,36.11h150.4Z"/>
        <path class="cls-5" d="M117.79,130.08s-2.11,33.91-33.8,33.48c0,0-23.65,3.71-30.89-33.61l-7.18,1.5s-.49,28.7-6.24,36.78h97.08s-12.82-14.1-9.66-36.47l-9.31-1.68Z"/>
        <path class="cls-3" d="M57.68,51.82l3.79-11.92-.5,11.75,13.37.17,4-12.67v12.67h13.33v-12.67l3.33,12.67h14.67v-9.33l2.67,9.33h6l3.28,6.74,3.14-2.92s10.95-35.98-17.76-51.23c0,0-16.75-6.5-23.5,1.25,0,0-5.75-5.5-16.74-3,0,0-28.76,6.91-20.23,52.98l5.47-3.98,5.67.17Z"/>
        <path class="cls-3" d="M57.01,8.2s-33.04,18.46-21.54,91.21c0,0,6.9,54.5-2.43,62.5,0,0,24.31-2.25,28-10.87,0,0-19.92-67.41-14.49-95.39l10.47-47.44Z"/>
        <path class="cls-3" d="M110.35,6.87s33.14,19.78,21.64,92.53c0,0-6.9,54.5,2.43,62.5,0,0-24.31-2.25-28-10.87,0,0,19.92-67.41,14.49-95.39l-10.57-48.77Z"/>
      </g>
    </g>
  </g>
</svg>