<?xml version="1.0" encoding="UTF-8"?>
<svg xmlns="http://www.w3.org/2000/svg" viewBox="0 0 170.08 170.08">
  <defs>
    <style>
      .cls-1 {
        fill: #dadada;
      }

      .cls-1, .cls-2, .cls-3, .cls-4, .cls-5, .cls-6, .cls-7, .cls-8 {
        stroke-width: 0px;
      }

      .cls-1, .cls-6 {
        mix-blend-mode: multiply;
      }

      .cls-9 {
        isolation: isolate;
      }

      .cls-2 {
        fill: #271504;
      }

      .cls-3 {
        fill: #1478a1;
      }

      .cls-4 {
        fill: #af8461;
      }

      .cls-5 {
        fill: #e74645;
      }

      .cls-6 {
        fill: #e2e1e1;
      }

      .cls-7 {
        fill: #f9bc90;
      }

      .cls-8 {
        fill: #432918;
      }
    </style>
  </defs>
  <g class="cls-9">
    <g id="Capa_1" data-name="Capa 1">
      <rect class="cls-3" x="-115.53" y="-127.56" width="401.14" height="425.2"/>
      <g>
        <rect class="cls-2" x="45.92" y="71.99" width="77.84" height="65.93"/>
        <rect class="cls-4" x="69.14" y="102.25" width="31.75" height="23.83"/>
        <path class="cls-1" d="M100.88,112.97v-10.72h-31.75v13.69c9.79,7.06,21.45,3.87,31.75-2.96Z"/>
        <path class="cls-4" d="M123.68,63.25c-2.67,29.33-23.33,52.67-39.67,52.67-14,0-37.67-25.25-37.67-54.33S60.26,10.58,84.01,10.58s39.67,23.58,39.67,52.67Z"/>
        <g>
          <path class="cls-7" d="M121.34,59.58c.04-.87,2.48-2.59,3.14-2.92,5.13-2.54,3.81,8.04,3.51,10.36-.62,4.78-2.58,10.28-7.56,11.97,0,0,.92-19.41.92-19.41Z"/>
          <path class="cls-6" d="M127.06,64.73c.04-2.2-.18-6.15-1.88-6.45-1.16-.21-2.51.54-2.62,2.77,0,.03.02.03.03,0,.51-1.77,1.24-2.59,2.2-2.47,1.26-.03,1.71,2.15,1.89,3.79.19,1.78-.08,3.64-.46,5.41-.32,1.48-.81,2.94-1.39,4.22-.77,1.7-1.69,1.77-2.79,2.06-.27.07-.43.75-.19.97,3.13,2.93,5.16-6.78,5.22-10.28Z"/>
          <path class="cls-6" d="M123.26,64c.03-.47.47-1.02,1-.92.58.12.49.81.5,1.31.02.85-.24,3.16-.85,3.75-1.08,1.05-1.19-.86-1.15-1.57.06-1.04.5-1.82.5-2.92"/>
        </g>
        <g>
          <path class="cls-7" d="M49.4,59.58c-.04-.87-2.48-2.59-3.14-2.92-5.13-2.54-3.81,8.04-3.51,10.36.62,4.78,2.58,10.28,7.56,11.97,0,0-.92-19.41-.92-19.41Z"/>
          <path class="cls-6" d="M43.68,64.73c-.04-2.2.18-6.15,1.88-6.45,1.16-.21,2.51.54,2.62,2.77,0,.03-.02.03-.03,0-.51-1.77-1.24-2.59-2.2-2.47-1.26-.03-1.71,2.15-1.89,3.79-.19,1.78.08,3.64.46,5.41.32,1.48.81,2.94,1.39,4.22.77,1.7,1.69,1.77,2.79,2.06.27.07.43.75.19.97-3.13,2.93-5.16-6.78-5.22-10.28Z"/>
          <path class="cls-6" d="M47.48,64c-.03-.47-.47-1.02-1-.92-.58.12-.49.81-.5,1.31-.02.85.24,3.16.85,3.75,1.08,1.05,1.19-.86,1.15-1.57-.06-1.04-.5-1.82-.5-2.92"/>
        </g>
        <path class="cls-4" d="M160.24,169.25c.67-32.39-30.5-36.23-30.5-36.23-13.11-.82-29.58-7.46-29.58-7.46l-15.73.02-14.62.02s-16.45,6.69-29.56,7.54c0,0-31,3.71-30.4,36.11h150.4Z"/>
        <path class="cls-5" d="M117.79,131.1s-2.11,33.91-33.8,33.48c0,0-23.65,3.71-30.89-33.61l-7.18,1.5s-.49,28.7-6.24,36.78h97.08s-12.82-14.1-9.66-36.47l-9.31-1.68Z"/>
        <path class="cls-8" d="M85.04,27.58s.71,14,15.84,25.33c0,0-4.54-10-3.54-14.67,0,0,4.67,13.71,9.67,18.02,0,0-.67-7.69,0-10.02,0,0,13.42,6.28,13.42,19.52,0,0,1.94-8.86,4.06-9.1,0,0,6.3-30.43-15.37-51.09,0,0-20.77-11.32-31.44,1.02,0,0-7-9.67-21.33.67,0,0-22.18,15.16-10.09,49.41,0,0,4.42-5.41,10.75-13.41,0,0-2.39,6.33-5,11.33,0,0,14.99-13.31,18.83-21.49,0,0-1.16,8.15-4.83,11.82,0,0,16.06-6.33,19.03-17.33Z"/>
        <path class="cls-8" d="M117.86,56.27s7.82,90.65-6.52,104.98c0,0,21.67,4.67,29.67-4l-9.98-106.33s-.67-42.47-28.84-47.57l15.49,51.23"/>
        <path class="cls-8" d="M50.72,56.27s-7.82,90.65,6.52,104.98c0,0-21.67,4.67-29.67-4l9.98-106.33s.67-42.47,28.84-47.57l-15.49,51.23"/>
      </g>
    </g>
  </g>
</svg>