<?xml version="1.0" encoding="UTF-8"?>
<svg xmlns="http://www.w3.org/2000/svg" viewBox="0 0 170.08 170.08">
  <defs>
    <style>
      .cls-1 {
        fill: #dadada;
      }

      .cls-1, .cls-2, .cls-3, .cls-4, .cls-5, .cls-6, .cls-7, .cls-8 {
        stroke-width: 0px;
      }

      .cls-1, .cls-7 {
        mix-blend-mode: multiply;
      }

      .cls-2 {
        fill: #8a2a2d;
      }

      .cls-9 {
        isolation: isolate;
      }

      .cls-4 {
        fill: #bb7b3e;
      }

      .cls-5 {
        fill: #1478a1;
      }

      .cls-6 {
        fill: #bb7b3f;
      }

      .cls-7 {
        fill: #e2e1e1;
      }

      .cls-8 {
        fill: #752324;
      }
    </style>
  </defs>
  <g class="cls-9">
    <g id="Capa_1" data-name="Capa 1">
      <rect class="cls-5" x="-115.53" y="-127.56" width="401.14" height="425.2"/>
      <g>
        <g>
          <rect class="cls-4" x="67.04" y="103.88" width="36" height="23.83"/>
          <path class="cls-1" d="M103.04,114.6v-10.72h-36v13.69c11.11,7.06,24.33,3.87,36-2.96Z"/>
          <path class="cls-6" d="M123.71,64.88c-2.67,29.33-23.33,52.67-39.67,52.67-14,0-37.67-25.25-37.67-54.33S60.29,12.21,84.04,12.21s39.67,23.58,39.67,52.67Z"/>
          <g>
            <path class="cls-4" d="M121.37,61.21c.04-.87,2.48-2.59,3.14-2.92,5.13-2.54,3.81,8.04,3.51,10.36-.62,4.78-2.58,10.28-7.56,11.97,0,0,.92-19.41.92-19.41Z"/>
            <path class="cls-7" d="M127.09,66.36c.04-2.2-.18-6.15-1.88-6.45-1.16-.21-2.51.54-2.62,2.77,0,.03.02.03.03,0,.51-1.77,1.24-2.59,2.2-2.47,1.26-.03,1.71,2.15,1.89,3.79.19,1.78-.08,3.64-.46,5.41-.32,1.48-.81,2.94-1.39,4.22-.77,1.7-1.69,1.77-2.79,2.06-.27.07-.43.75-.19.97,3.13,2.93,5.16-6.78,5.22-10.28Z"/>
            <path class="cls-7" d="M123.29,65.63c.03-.47.47-1.02,1-.92.58.12.49.81.5,1.31.02.85-.24,3.16-.85,3.75-1.08,1.05-1.19-.86-1.15-1.57.06-1.04.5-1.82.5-2.92"/>
          </g>
          <g>
            <path class="cls-4" d="M49.43,61.21c-.04-.87-2.48-2.59-3.14-2.92-5.13-2.54-3.81,8.04-3.51,10.36.62,4.78,2.58,10.28,7.56,11.97,0,0-.92-19.41-.92-19.41Z"/>
            <path class="cls-7" d="M43.71,66.36c-.04-2.2.18-6.15,1.88-6.45,1.16-.21,2.51.54,2.62,2.77,0,.03-.02.03-.03,0-.51-1.77-1.24-2.59-2.2-2.47-1.26-.03-1.71,2.15-1.89,3.79-.19,1.78.08,3.64.46,5.41.32,1.48.81,2.94,1.39,4.22.77,1.7,1.69,1.77,2.79,2.06.27.07.43.75.19.97-3.13,2.93-5.16-6.78-5.22-10.28Z"/>
            <path class="cls-7" d="M47.51,65.63c-.03-.47-.47-1.02-1-.92-.58.12-.49.81-.5,1.31-.02.85.24,3.16.85,3.75,1.08,1.05,1.19-.86,1.15-1.57-.06-1.04-.5-1.82-.5-2.92"/>
          </g>
          <path class="cls-4" d="M132.46,132.27c-13.45-.84-30.24-7.46-31.33-7.89h-16.75s-15.51.02-15.51.02c0,0-17.45,7.1-31.36,8,0,0-32.89,3.93-32.26,38.31h159.58c.71-34.36-32.37-38.44-32.37-38.44Z"/>
          <path class="cls-2" d="M132.46,132.27c-13.45-.84-28.33-7.43-29.42-7.87l-18,27.34h0l-18-27.34s-15.62,7.1-29.53,8c0,0-32.89,3.93-32.26,38.31h159.58c.71-34.36-32.37-38.44-32.37-38.44Z"/>
          <path class="cls-8" d="M67.04,124.4s-10.7,3.31-23.34,7.24c0,0,14.92,4.41,33.89,28.91l7.45-8.82-18-27.34Z"/>
          <path class="cls-8" d="M103.04,124.4s10.3,3.31,23.34,7.24c0,0-13.44,4.41-33.54,28.91l-7.8-8.82,18-27.34Z"/>
        </g>
        <path class="cls-3" d="M59.59,32.86c-9.24-3.05-7.22,15.35-7.22,15.35l-2.03,21.88h-1.3c1.3-13.71-5.34-11.74-5.34-11.74-3.72-15.21,0-31.72,0-31.72C52.04,2.88,76.04-.37,76.04-.37c17-2,21.33,7.92,21.33,7.92,13,.33,20.33,9.67,20.33,9.67,12.33,15.33,9.39,40.69,9.39,40.69-2.27-.65-2.58.39-2.58.39-3.86,1.74-4.06,11.8-4.06,11.8h-1.42l-.67-14.21s.22-22.07-10.28-25.32c0,0-17.6,12.5-48.5,2.3Z"/>
      </g>
    </g>
  </g>
</svg>